<svg width="24" height="24" viewBox="0 0 24 24" fill="none" xmlns="http://www.w3.org/2000/svg">
<path d="M23 15.8425C20.9242 16.6769 18.6489 16.8831 16.4568 16.4354C14.2648 15.9877 12.2527 14.906 10.6707 13.3245C9.08865 11.7431 8.00645 9.73182 7.55862 7.54062C7.11078 5.34942 7.31705 3.07497 8.15179 1C5.69363 1.98975 3.65644 3.80342 2.38946 6.13011C1.12247 8.45679 0.704595 11.1516 1.20747 13.7525C1.71034 16.3534 3.10264 18.6985 5.14569 20.3857C7.18874 22.0729 9.75529 22.9971 12.4054 23C14.6842 23.0001 16.911 22.3185 18.7991 21.0429C20.6872 19.7673 22.1503 17.9562 23 15.8425Z" stroke="black" stroke-linecap="round" stroke-linejoin="round"/>
</svg>
