<svg width="24" height="24" viewBox="0 0 24 24" fill="none" xmlns="http://www.w3.org/2000/svg">
<path d="M12 1V2.22222V1ZM12 21.7778V23V21.7778ZM23 12H21.7778H23ZM2.22222 12H1H2.22222ZM19.7782 19.7782L18.9141 18.9141L19.7782 19.7782ZM5.08589 5.08589L4.22178 4.22178L5.08589 5.08589ZM19.7782 4.22178L18.9141 5.08589L19.7782 4.22178ZM5.08589 18.9141L4.22178 19.7782L5.08589 18.9141ZM16.8889 12C16.8889 13.2966 16.3738 14.5401 15.457 15.457C14.5401 16.3738 13.2966 16.8889 12 16.8889C10.7034 16.8889 9.45988 16.3738 8.54303 15.457C7.62619 14.5401 7.11111 13.2966 7.11111 12C7.11111 10.7034 7.62619 9.45988 8.54303 8.54303C9.45988 7.62619 10.7034 7.11111 12 7.11111C13.2966 7.11111 14.5401 7.62619 15.457 8.54303C16.3738 9.45988 16.8889 10.7034 16.8889 12V12Z" stroke="black" stroke-linecap="round" stroke-linejoin="round"/>
</svg>
